<mxfile host="65bd71144e">
    <diagram id="Ht1M8jgEwFfnCIfOTk4-" name="Page-1">
        <mxGraphModel dx="2452" dy="1069" grid="0" gridSize="10" guides="1" tooltips="1" connect="1" arrows="1" fold="1" page="0" pageScale="1" pageWidth="1169" pageHeight="827" math="0" shadow="0">
            <root>
                <mxCell id="0"/>
                <mxCell id="1" parent="0"/>
                <mxCell id="UEzPUAAOIrF-is8g5C7q-74" value="AWS Cloud" style="points=[[0,0],[0.25,0],[0.5,0],[0.75,0],[1,0],[1,0.25],[1,0.5],[1,0.75],[1,1],[0.75,1],[0.5,1],[0.25,1],[0,1],[0,0.75],[0,0.5],[0,0.25]];outlineConnect=0;gradientColor=none;html=1;whiteSpace=wrap;fontSize=12;fontStyle=0;shape=mxgraph.aws4.group;grIcon=mxgraph.aws4.group_aws_cloud_alt;strokeColor=#232F3E;fillColor=none;verticalAlign=top;align=left;spacingLeft=30;fontColor=#232F3E;labelBackgroundColor=#ffffff;container=1;pointerEvents=0;collapsible=0;recursiveResize=0;" parent="1" vertex="1">
                    <mxGeometry x="-40" y="-300" width="1840" height="1000" as="geometry"/>
                </mxCell>
                <mxCell id="q4Ez89YPsQDKpwayuKLo-72" value="" style="rounded=0;whiteSpace=wrap;html=1;fillColor=none;" parent="UEzPUAAOIrF-is8g5C7q-74" vertex="1">
                    <mxGeometry x="1010" y="170" width="160" height="650" as="geometry"/>
                </mxCell>
                <mxCell id="q4Ez89YPsQDKpwayuKLo-29" value="&amp;nbsp; &amp;nbsp;Frontend" style="rounded=0;whiteSpace=wrap;html=1;fillColor=none;dashed=1;dashPattern=12 12;align=left;verticalAlign=top;" parent="UEzPUAAOIrF-is8g5C7q-74" vertex="1">
                    <mxGeometry x="20" y="370" width="760" height="220" as="geometry"/>
                </mxCell>
                <mxCell id="q4Ez89YPsQDKpwayuKLo-46" value="&amp;nbsp; &amp;nbsp;Backend" style="rounded=0;whiteSpace=wrap;html=1;fillColor=none;dashed=1;dashPattern=12 12;align=left;verticalAlign=top;movable=1;resizable=1;rotatable=1;deletable=1;editable=1;locked=0;connectable=1;" parent="UEzPUAAOIrF-is8g5C7q-74" vertex="1">
                    <mxGeometry x="840" y="40" width="960" height="920" as="geometry"/>
                </mxCell>
                <mxCell id="q4Ez89YPsQDKpwayuKLo-14" style="edgeStyle=orthogonalEdgeStyle;rounded=0;orthogonalLoop=1;jettySize=auto;html=1;" parent="UEzPUAAOIrF-is8g5C7q-74" source="q4Ez89YPsQDKpwayuKLo-3" target="q4Ez89YPsQDKpwayuKLo-4" edge="1">
                    <mxGeometry relative="1" as="geometry"/>
                </mxCell>
                <mxCell id="q4Ez89YPsQDKpwayuKLo-3" value="" style="sketch=0;points=[[0,0,0],[0.25,0,0],[0.5,0,0],[0.75,0,0],[1,0,0],[0,1,0],[0.25,1,0],[0.5,1,0],[0.75,1,0],[1,1,0],[0,0.25,0],[0,0.5,0],[0,0.75,0],[1,0.25,0],[1,0.5,0],[1,0.75,0]];outlineConnect=0;fontColor=#232F3E;fillColor=#8C4FFF;strokeColor=#ffffff;dashed=0;verticalLabelPosition=bottom;verticalAlign=top;align=center;html=1;fontSize=12;fontStyle=0;aspect=fixed;shape=mxgraph.aws4.resourceIcon;resIcon=mxgraph.aws4.cloudfront;" parent="UEzPUAAOIrF-is8g5C7q-74" vertex="1">
                    <mxGeometry x="310" y="441" width="80" height="80" as="geometry"/>
                </mxCell>
                <mxCell id="q4Ez89YPsQDKpwayuKLo-19" style="edgeStyle=orthogonalEdgeStyle;rounded=0;orthogonalLoop=1;jettySize=auto;html=1;entryX=0;entryY=0.5;entryDx=0;entryDy=0;" parent="UEzPUAAOIrF-is8g5C7q-74" source="q4Ez89YPsQDKpwayuKLo-4" target="q4Ez89YPsQDKpwayuKLo-18" edge="1">
                    <mxGeometry relative="1" as="geometry">
                        <Array as="points">
                            <mxPoint x="560" y="482"/>
                            <mxPoint x="560" y="482"/>
                        </Array>
                    </mxGeometry>
                </mxCell>
                <mxCell id="q4Ez89YPsQDKpwayuKLo-4" value="" style="sketch=0;points=[[0,0,0],[0.25,0,0],[0.5,0,0],[0.75,0,0],[1,0,0],[0,1,0],[0.25,1,0],[0.5,1,0],[0.75,1,0],[1,1,0],[0,0.25,0],[0,0.5,0],[0,0.75,0],[1,0.25,0],[1,0.5,0],[1,0.75,0]];outlineConnect=0;fontColor=#232F3E;fillColor=#7AA116;strokeColor=#ffffff;dashed=0;verticalLabelPosition=bottom;verticalAlign=top;align=center;html=1;fontSize=12;fontStyle=0;aspect=fixed;shape=mxgraph.aws4.resourceIcon;resIcon=mxgraph.aws4.s3;" parent="UEzPUAAOIrF-is8g5C7q-74" vertex="1">
                    <mxGeometry x="460" y="441" width="80" height="80" as="geometry"/>
                </mxCell>
                <mxCell id="q4Ez89YPsQDKpwayuKLo-5" value="&lt;font style=&quot;font-size: 15px;&quot;&gt;&amp;nbsp; Demo (async)&lt;/font&gt;" style="whiteSpace=wrap;html=1;fillColor=none;glass=0;rounded=0;align=left;verticalAlign=top;" parent="UEzPUAAOIrF-is8g5C7q-74" vertex="1">
                    <mxGeometry x="1220" y="100" width="560" height="320" as="geometry"/>
                </mxCell>
                <mxCell id="q4Ez89YPsQDKpwayuKLo-7" value="" style="sketch=0;points=[[0,0,0],[0.25,0,0],[0.5,0,0],[0.75,0,0],[1,0,0],[0,1,0],[0.25,1,0],[0.5,1,0],[0.75,1,0],[1,1,0],[0,0.25,0],[0,0.5,0],[0,0.75,0],[1,0.25,0],[1,0.5,0],[1,0.75,0]];outlineConnect=0;fontColor=#232F3E;fillColor=#ED7100;strokeColor=#ffffff;dashed=0;verticalLabelPosition=bottom;verticalAlign=top;align=center;html=1;fontSize=12;fontStyle=0;aspect=fixed;shape=mxgraph.aws4.resourceIcon;resIcon=mxgraph.aws4.lambda;" parent="UEzPUAAOIrF-is8g5C7q-74" vertex="1">
                    <mxGeometry x="1340" y="110" width="80" height="80" as="geometry"/>
                </mxCell>
                <mxCell id="q4Ez89YPsQDKpwayuKLo-8" value="&lt;div&gt;&lt;font style=&quot;color: rgb(255, 128, 0);&quot;&gt;scrape website&lt;/font&gt;&lt;/div&gt;&lt;div&gt;&lt;font style=&quot;color: rgb(255, 128, 0);&quot;&gt;generate prompt (2.5-flash)&lt;/font&gt;&lt;/div&gt;&lt;span&gt;&lt;font style=&quot;color: rgb(255, 128, 0);&quot;&gt;generate image (image-gen-1)&lt;/font&gt;&lt;/span&gt;" style="sketch=0;points=[[0,0,0],[0.25,0,0],[0.5,0,0],[0.75,0,0],[1,0,0],[0,1,0],[0.25,1,0],[0.5,1,0],[0.75,1,0],[1,1,0],[0,0.25,0],[0,0.5,0],[0,0.75,0],[1,0.25,0],[1,0.5,0],[1,0.75,0]];outlineConnect=0;fontColor=#232F3E;fillColor=#ED7100;strokeColor=#ffffff;dashed=0;verticalLabelPosition=bottom;verticalAlign=top;align=center;html=1;fontSize=12;fontStyle=0;aspect=fixed;shape=mxgraph.aws4.resourceIcon;resIcon=mxgraph.aws4.lambda;" parent="UEzPUAAOIrF-is8g5C7q-74" vertex="1">
                    <mxGeometry x="1658" y="287" width="80" height="80" as="geometry"/>
                </mxCell>
                <mxCell id="q4Ez89YPsQDKpwayuKLo-9" value="&lt;div&gt;&lt;font style=&quot;color: rgb(0, 127, 255);&quot;&gt;store pre-signed&amp;nbsp;&lt;/font&gt;&lt;/div&gt;&lt;div&gt;&lt;font style=&quot;color: rgb(0, 127, 255);&quot;&gt;image URLs&lt;/font&gt;&lt;/div&gt;" style="sketch=0;points=[[0,0,0],[0.25,0,0],[0.5,0,0],[0.75,0,0],[1,0,0],[0,1,0],[0.25,1,0],[0.5,1,0],[0.75,1,0],[1,1,0],[0,0.25,0],[0,0.5,0],[0,0.75,0],[1,0.25,0],[1,0.5,0],[1,0.75,0]];outlineConnect=0;fontColor=#232F3E;fillColor=#4B6CF7;strokeColor=#ffffff;dashed=0;verticalLabelPosition=bottom;verticalAlign=top;align=center;html=1;fontSize=12;fontStyle=0;aspect=fixed;shape=mxgraph.aws4.resourceIcon;resIcon=mxgraph.aws4.dynamodb;" parent="UEzPUAAOIrF-is8g5C7q-74" vertex="1">
                    <mxGeometry x="1340" y="298" width="80" height="80" as="geometry"/>
                </mxCell>
                <mxCell id="9" style="edgeStyle=none;html=1;" parent="UEzPUAAOIrF-is8g5C7q-74" source="q4Ez89YPsQDKpwayuKLo-10" target="6" edge="1">
                    <mxGeometry relative="1" as="geometry"/>
                </mxCell>
                <mxCell id="q4Ez89YPsQDKpwayuKLo-10" value="User" style="sketch=0;outlineConnect=0;fontColor=#232F3E;gradientColor=none;strokeColor=#232F3E;fillColor=#ffffff;dashed=0;verticalLabelPosition=bottom;verticalAlign=top;align=center;html=1;fontSize=12;fontStyle=0;aspect=fixed;shape=mxgraph.aws4.resourceIcon;resIcon=mxgraph.aws4.user;" parent="UEzPUAAOIrF-is8g5C7q-74" vertex="1">
                    <mxGeometry x="30" y="441" width="80" height="80" as="geometry"/>
                </mxCell>
                <mxCell id="q4Ez89YPsQDKpwayuKLo-61" style="edgeStyle=orthogonalEdgeStyle;rounded=0;orthogonalLoop=1;jettySize=auto;html=1;exitX=0.5;exitY=0;exitDx=0;exitDy=0;" parent="UEzPUAAOIrF-is8g5C7q-74" source="q4Ez89YPsQDKpwayuKLo-18" target="q4Ez89YPsQDKpwayuKLo-55" edge="1">
                    <mxGeometry relative="1" as="geometry">
                        <Array as="points">
                            <mxPoint x="660" y="340"/>
                        </Array>
                    </mxGeometry>
                </mxCell>
                <mxCell id="q4Ez89YPsQDKpwayuKLo-65" value="&lt;div&gt;&lt;font style=&quot;color: light-dark(rgb(0, 216, 255), rgb(237, 237, 237));&quot;&gt;if no URL in localstorage and not rate limited:&amp;nbsp;&lt;/font&gt;&lt;/div&gt;&lt;div&gt;&lt;font style=&quot;color: light-dark(rgb(0, 216, 255), rgb(237, 237, 237));&quot;&gt;/put{URL} -&amp;gt; poll(/get{URL})&lt;/font&gt;&lt;/div&gt;&lt;div&gt;&lt;font style=&quot;color: light-dark(rgb(0, 216, 255), rgb(237, 237, 237));&quot;&gt;else: /get{URL}&lt;/font&gt;&lt;/div&gt;&lt;div&gt;&lt;font style=&quot;color: light-dark(rgb(0, 216, 255), rgb(237, 237, 237));&quot;&gt;[store image and URL in localstorage]&lt;/font&gt;&lt;/div&gt;" style="edgeLabel;html=1;align=center;verticalAlign=middle;resizable=0;points=[];labelBackgroundColor=none;" parent="q4Ez89YPsQDKpwayuKLo-61" vertex="1" connectable="0">
                    <mxGeometry x="0.119" y="2" relative="1" as="geometry">
                        <mxPoint x="-173" y="67" as="offset"/>
                    </mxGeometry>
                </mxCell>
                <mxCell id="q4Ez89YPsQDKpwayuKLo-18" value="" style="shape=image;verticalLabelPosition=bottom;labelBackgroundColor=default;verticalAlign=top;aspect=fixed;imageAspect=0;image=https://cdn.freebiesupply.com/logos/large/2x/react-1-logo-png-transparent.png;" parent="UEzPUAAOIrF-is8g5C7q-74" vertex="1">
                    <mxGeometry x="620" y="442" width="80" height="80" as="geometry"/>
                </mxCell>
                <mxCell id="q4Ez89YPsQDKpwayuKLo-55" value="&lt;span style=&quot;background-color: light-dark(#ffffff, var(--ge-dark-color, #121212));&quot;&gt;&lt;font style=&quot;color: rgb(255, 0, 0);&quot;&gt;/demo&lt;/font&gt;&lt;/span&gt;" style="sketch=0;outlineConnect=0;fontColor=#232F3E;gradientColor=none;fillColor=#E7157B;strokeColor=none;dashed=0;verticalLabelPosition=bottom;verticalAlign=top;align=center;html=1;fontSize=12;fontStyle=0;aspect=fixed;pointerEvents=1;shape=mxgraph.aws4.endpoint;" parent="UEzPUAAOIrF-is8g5C7q-74" vertex="1">
                    <mxGeometry x="1050" y="300" width="80" height="80" as="geometry"/>
                </mxCell>
                <mxCell id="q4Ez89YPsQDKpwayuKLo-59" value="" style="sketch=0;outlineConnect=0;fontColor=#232F3E;gradientColor=none;fillColor=#E7157B;strokeColor=none;dashed=0;verticalLabelPosition=bottom;verticalAlign=top;align=center;html=1;fontSize=12;fontStyle=0;aspect=fixed;pointerEvents=1;shape=mxgraph.aws4.endpoint;" parent="UEzPUAAOIrF-is8g5C7q-74" vertex="1">
                    <mxGeometry x="1050" y="620" width="78" height="78" as="geometry"/>
                </mxCell>
                <mxCell id="q4Ez89YPsQDKpwayuKLo-64" style="edgeStyle=orthogonalEdgeStyle;rounded=0;orthogonalLoop=1;jettySize=auto;html=1;entryX=0;entryY=0.5;entryDx=0;entryDy=0;entryPerimeter=0;" parent="UEzPUAAOIrF-is8g5C7q-74" source="q4Ez89YPsQDKpwayuKLo-55" target="q4Ez89YPsQDKpwayuKLo-7" edge="1">
                    <mxGeometry relative="1" as="geometry">
                        <Array as="points">
                            <mxPoint x="1090" y="150"/>
                        </Array>
                    </mxGeometry>
                </mxCell>
                <mxCell id="q4Ez89YPsQDKpwayuKLo-76" value="/put" style="edgeLabel;html=1;align=center;verticalAlign=middle;resizable=0;points=[];" parent="q4Ez89YPsQDKpwayuKLo-64" vertex="1" connectable="0">
                    <mxGeometry x="-0.4018" y="1" relative="1" as="geometry">
                        <mxPoint y="62" as="offset"/>
                    </mxGeometry>
                </mxCell>
                <mxCell id="q4Ez89YPsQDKpwayuKLo-68" style="edgeStyle=orthogonalEdgeStyle;rounded=0;orthogonalLoop=1;jettySize=auto;html=1;entryX=0.5;entryY=0;entryDx=0;entryDy=0;entryPerimeter=0;" parent="UEzPUAAOIrF-is8g5C7q-74" source="q4Ez89YPsQDKpwayuKLo-7" target="q4Ez89YPsQDKpwayuKLo-9" edge="1">
                    <mxGeometry relative="1" as="geometry"/>
                </mxCell>
                <mxCell id="q4Ez89YPsQDKpwayuKLo-69" value="&lt;div&gt;&lt;span style=&quot;color: light-dark(rgb(255, 128, 0), rgb(206, 97, 0));&quot;&gt;if URL exist: {exit} return: {URL}&lt;/span&gt;&lt;/div&gt;&lt;div&gt;&lt;span style=&quot;color: light-dark(rgb(255, 128, 0), rgb(206, 97, 0));&quot;&gt;if IP exist: {exit} return: {rate limited}&lt;/span&gt;&lt;/div&gt;&lt;div&gt;&lt;font&gt;&lt;font style=&quot;color: rgb(255, 153, 51);&quot;&gt;else: {store IP, URL -&amp;gt;&amp;nbsp;&lt;/font&gt;&lt;span&gt;&lt;font style=&quot;color: rgb(255, 153, 51);&quot;&gt;call next lambda}&lt;/font&gt;&lt;/span&gt;&lt;span style=&quot;color: light-dark(rgb(255, 128, 0), rgb(206, 97, 0));&quot;&gt;&amp;nbsp;&lt;/span&gt;&lt;/font&gt;&lt;span style=&quot;color: light-dark(rgb(255, 128, 0), rgb(206, 97, 0));&quot;&gt;return: {URL}&lt;/span&gt;&lt;/div&gt;" style="edgeLabel;html=1;align=center;verticalAlign=middle;resizable=0;points=[];labelBackgroundColor=none;" parent="q4Ez89YPsQDKpwayuKLo-68" vertex="1" connectable="0">
                    <mxGeometry x="0.0251" relative="1" as="geometry">
                        <mxPoint x="1" y="-6" as="offset"/>
                    </mxGeometry>
                </mxCell>
                <mxCell id="q4Ez89YPsQDKpwayuKLo-70" style="edgeStyle=orthogonalEdgeStyle;rounded=0;orthogonalLoop=1;jettySize=auto;html=1;entryX=0;entryY=0.25;entryDx=0;entryDy=0;entryPerimeter=0;" parent="UEzPUAAOIrF-is8g5C7q-74" source="q4Ez89YPsQDKpwayuKLo-7" target="q4Ez89YPsQDKpwayuKLo-8" edge="1">
                    <mxGeometry relative="1" as="geometry">
                        <Array as="points">
                            <mxPoint x="1540" y="150"/>
                            <mxPoint x="1540" y="307"/>
                        </Array>
                    </mxGeometry>
                </mxCell>
                <mxCell id="q4Ez89YPsQDKpwayuKLo-74" value="send: {URL}" style="edgeLabel;html=1;align=center;verticalAlign=middle;resizable=0;points=[];" parent="q4Ez89YPsQDKpwayuKLo-70" vertex="1" connectable="0">
                    <mxGeometry x="-0.0357" y="-1" relative="1" as="geometry">
                        <mxPoint x="-59" y="-77" as="offset"/>
                    </mxGeometry>
                </mxCell>
                <mxCell id="q4Ez89YPsQDKpwayuKLo-56" value="" style="sketch=0;points=[[0,0,0],[0.25,0,0],[0.5,0,0],[0.75,0,0],[1,0,0],[0,1,0],[0.25,1,0],[0.5,1,0],[0.75,1,0],[1,1,0],[0,0.25,0],[0,0.5,0],[0,0.75,0],[1,0.25,0],[1,0.5,0],[1,0.75,0]];outlineConnect=0;fontColor=#232F3E;fillColor=#E7157B;strokeColor=#ffffff;dashed=0;verticalLabelPosition=bottom;verticalAlign=top;align=center;html=1;fontSize=12;fontStyle=0;aspect=fixed;shape=mxgraph.aws4.resourceIcon;resIcon=mxgraph.aws4.api_gateway;perimeterSpacing=0;" parent="UEzPUAAOIrF-is8g5C7q-74" vertex="1">
                    <mxGeometry x="1010" y="170" width="40" height="40" as="geometry"/>
                </mxCell>
                <mxCell id="q4Ez89YPsQDKpwayuKLo-79" style="edgeStyle=orthogonalEdgeStyle;rounded=0;orthogonalLoop=1;jettySize=auto;html=1;entryX=0;entryY=0.5;entryDx=0;entryDy=0;entryPerimeter=0;" parent="UEzPUAAOIrF-is8g5C7q-74" source="q4Ez89YPsQDKpwayuKLo-55" target="q4Ez89YPsQDKpwayuKLo-9" edge="1">
                    <mxGeometry relative="1" as="geometry">
                        <Array as="points">
                            <mxPoint x="1059" y="337"/>
                            <mxPoint x="1180" y="338"/>
                        </Array>
                    </mxGeometry>
                </mxCell>
                <mxCell id="q4Ez89YPsQDKpwayuKLo-80" value="/get" style="edgeLabel;html=1;align=center;verticalAlign=middle;resizable=0;points=[];" parent="q4Ez89YPsQDKpwayuKLo-79" vertex="1" connectable="0">
                    <mxGeometry x="0.1074" y="2" relative="1" as="geometry">
                        <mxPoint x="-97" y="2" as="offset"/>
                    </mxGeometry>
                </mxCell>
                <mxCell id="q4Ez89YPsQDKpwayuKLo-85" style="edgeStyle=orthogonalEdgeStyle;rounded=0;orthogonalLoop=1;jettySize=auto;html=1;entryX=1;entryY=0.75;entryDx=0;entryDy=0;entryPerimeter=0;" parent="UEzPUAAOIrF-is8g5C7q-74" source="q4Ez89YPsQDKpwayuKLo-8" target="q4Ez89YPsQDKpwayuKLo-9" edge="1">
                    <mxGeometry relative="1" as="geometry">
                        <mxPoint x="1420" y="340" as="targetPoint"/>
                        <Array as="points">
                            <mxPoint x="1550" y="358"/>
                            <mxPoint x="1550" y="358"/>
                        </Array>
                    </mxGeometry>
                </mxCell>
                <mxCell id="q4Ez89YPsQDKpwayuKLo-87" value="if success: {store image url with user}&lt;div&gt;else: {delete entry}&lt;br&gt;&lt;div&gt;&lt;br&gt;&lt;/div&gt;&lt;/div&gt;" style="edgeLabel;html=1;align=center;verticalAlign=middle;resizable=0;points=[];labelBackgroundColor=none;" parent="q4Ez89YPsQDKpwayuKLo-85" vertex="1" connectable="0">
                    <mxGeometry x="0.1873" y="-1" relative="1" as="geometry">
                        <mxPoint x="23" y="7" as="offset"/>
                    </mxGeometry>
                </mxCell>
                <mxCell id="q4Ez89YPsQDKpwayuKLo-88" value="" style="sketch=0;points=[[0,0,0],[0.25,0,0],[0.5,0,0],[0.75,0,0],[1,0,0],[0,1,0],[0.25,1,0],[0.5,1,0],[0.75,1,0],[1,1,0],[0,0.25,0],[0,0.5,0],[0,0.75,0],[1,0.25,0],[1,0.5,0],[1,0.75,0]];outlineConnect=0;fontColor=#232F3E;fillColor=#7AA116;strokeColor=#ffffff;dashed=0;verticalLabelPosition=bottom;verticalAlign=top;align=center;html=1;fontSize=12;fontStyle=0;aspect=fixed;shape=mxgraph.aws4.resourceIcon;resIcon=mxgraph.aws4.s3;" parent="UEzPUAAOIrF-is8g5C7q-74" vertex="1">
                    <mxGeometry x="1658" y="110" width="80" height="80" as="geometry"/>
                </mxCell>
                <mxCell id="q4Ez89YPsQDKpwayuKLo-89" style="edgeStyle=orthogonalEdgeStyle;rounded=0;orthogonalLoop=1;jettySize=auto;html=1;entryX=0.5;entryY=1;entryDx=0;entryDy=0;entryPerimeter=0;" parent="UEzPUAAOIrF-is8g5C7q-74" source="q4Ez89YPsQDKpwayuKLo-8" target="q4Ez89YPsQDKpwayuKLo-88" edge="1">
                    <mxGeometry relative="1" as="geometry"/>
                </mxCell>
                <mxCell id="q4Ez89YPsQDKpwayuKLo-90" value="store image" style="edgeLabel;html=1;align=center;verticalAlign=middle;resizable=0;points=[];" parent="q4Ez89YPsQDKpwayuKLo-89" vertex="1" connectable="0">
                    <mxGeometry x="0.0955" y="1" relative="1" as="geometry">
                        <mxPoint as="offset"/>
                    </mxGeometry>
                </mxCell>
                <mxCell id="5" style="edgeStyle=none;html=1;rounded=0;curved=0;" parent="UEzPUAAOIrF-is8g5C7q-74" source="q4Ez89YPsQDKpwayuKLo-93" target="q4Ez89YPsQDKpwayuKLo-59" edge="1">
                    <mxGeometry relative="1" as="geometry">
                        <Array as="points">
                            <mxPoint x="930" y="659"/>
                        </Array>
                    </mxGeometry>
                </mxCell>
                <mxCell id="q4Ez89YPsQDKpwayuKLo-93" value="" style="sketch=0;points=[[0,0,0],[0.25,0,0],[0.5,0,0],[0.75,0,0],[1,0,0],[0,1,0],[0.25,1,0],[0.5,1,0],[0.75,1,0],[1,1,0],[0,0.25,0],[0,0.5,0],[0,0.75,0],[1,0.25,0],[1,0.5,0],[1,0.75,0]];outlineConnect=0;fontColor=#232F3E;fillColor=#DD344C;strokeColor=#ffffff;dashed=0;verticalLabelPosition=bottom;verticalAlign=top;align=center;html=1;fontSize=12;fontStyle=0;aspect=fixed;shape=mxgraph.aws4.resourceIcon;resIcon=mxgraph.aws4.cognito;" parent="UEzPUAAOIrF-is8g5C7q-74" vertex="1">
                    <mxGeometry x="890" y="444" width="78" height="78" as="geometry"/>
                </mxCell>
                <mxCell id="q4Ez89YPsQDKpwayuKLo-96" value="" style="shape=image;verticalLabelPosition=bottom;labelBackgroundColor=default;verticalAlign=top;aspect=fixed;imageAspect=0;image=https://d-cb.jc-cdn.com/sites/crackberry.com/files/styles/large/public/article_images/2023/08/openai-logo.jpg;clipPath=inset(0% 12.67% 0.22% 12.33%);" parent="UEzPUAAOIrF-is8g5C7q-74" vertex="1">
                    <mxGeometry x="1707" y="336.35" width="31" height="30.93" as="geometry"/>
                </mxCell>
                <mxCell id="3" style="edgeStyle=none;html=1;entryX=0;entryY=0.5;entryDx=0;entryDy=0;entryPerimeter=0;" parent="UEzPUAAOIrF-is8g5C7q-74" source="q4Ez89YPsQDKpwayuKLo-18" target="q4Ez89YPsQDKpwayuKLo-93" edge="1">
                    <mxGeometry relative="1" as="geometry"/>
                </mxCell>
                <mxCell id="6" value="" style="sketch=0;points=[[0,0,0],[0.25,0,0],[0.5,0,0],[0.75,0,0],[1,0,0],[0,1,0],[0.25,1,0],[0.5,1,0],[0.75,1,0],[1,1,0],[0,0.25,0],[0,0.5,0],[0,0.75,0],[1,0.25,0],[1,0.5,0],[1,0.75,0]];outlineConnect=0;fontColor=#232F3E;fillColor=#8C4FFF;strokeColor=#ffffff;dashed=0;verticalLabelPosition=bottom;verticalAlign=top;align=center;html=1;fontSize=12;fontStyle=0;aspect=fixed;shape=mxgraph.aws4.resourceIcon;resIcon=mxgraph.aws4.route_53;" parent="UEzPUAAOIrF-is8g5C7q-74" vertex="1">
                    <mxGeometry x="170" y="443" width="78" height="78" as="geometry"/>
                </mxCell>
                <mxCell id="10" style="edgeStyle=none;html=1;entryX=0;entryY=0.5;entryDx=0;entryDy=0;entryPerimeter=0;" parent="UEzPUAAOIrF-is8g5C7q-74" source="6" target="q4Ez89YPsQDKpwayuKLo-3" edge="1">
                    <mxGeometry relative="1" as="geometry"/>
                </mxCell>
                <mxCell id="11" value="" style="shape=image;verticalLabelPosition=bottom;labelBackgroundColor=default;verticalAlign=top;aspect=fixed;imageAspect=0;image=https://cdn.worldvectorlogo.com/logos/typescript-2.svg;" parent="UEzPUAAOIrF-is8g5C7q-74" vertex="1">
                    <mxGeometry x="620" y="482" width="40" height="40" as="geometry"/>
                </mxCell>
                <mxCell id="16" value="" style="shape=image;verticalLabelPosition=bottom;labelBackgroundColor=default;verticalAlign=top;aspect=fixed;imageAspect=0;image=https://static.vecteezy.com/system/resources/previews/055/687/055/non_2x/rectangle-gemini-google-icon-symbol-logo-free-png.png;clipPath=inset(15% 15% 15% 15%);" vertex="1" parent="UEzPUAAOIrF-is8g5C7q-74">
                    <mxGeometry x="1707" y="305.07" width="31.28" height="31.28" as="geometry"/>
                </mxCell>
            </root>
        </mxGraphModel>
    </diagram>
</mxfile>